# xmcd CD database file
#
# Track frame offsets:
#	210
#	17506
#	38599
#	55629
#	75414
#	88130
#	100015
#	116123
#	130926
#	143888
#	158244
#	172816
#	185374
#	198077
#	212203
#	227964
#	241210
#	254692
#	266375
#	280123
#	298333
#
# Disc length: 4162 seconds
#
# Revision: 1
# Processed by: cddbd v1.5.1PL2 Copyright (c) Steve Scherf et al.
# Submitted via: CDex 1.50
#
DISCID=22104015
DTITLE=Benny Carter and his Orchestra - Alternative takes in chronological Order - Volume 2 (1940-1946)
DYEAR=1940
DGENRE=Jazz
TTITLE0=I Surrender, Dear - take 2/1
TTITLE1=I Surrender, Dear - take 2
TTITLE2=I Surrender, Dear - take 3
TTITLE3=I Can't Believe That You're In Love With Me - take 2
TTITLE4=Joe Turner Blues
TTITLE5=Beale Street Blues
TTITLE6=The Moon Is Low - take 1
TTITLE7=The Moon Is Low - take 2
TTITLE8=The Moon Is Low - take 3
TTITLE9=Stairway To The Stars
TTITLE10=Bye Bye Blues - take 2
TTITLE11=Bye Bye Blues - take 3
TTITLE12=Bye Bye Blues - take 4
TTITLE13=I Don't Know Why
TTITLE14=Moonglow - take 1
TTITLE15=Moonglow - take 4
TTITLE16=Give Me Something To Remember You By
TTITLE17=Lady Be Good - take 1
TTITLE18=Lady Be Good - take 2
TTITLE19=Deep Purple - take 1
TTITLE20=Deep Purple - take 3
EXTD=YEAR: 1940
EXTT0=
EXTT1=
EXTT2=
EXTT3=
EXTT4=
EXTT5=
EXTT6=
EXTT7=
EXTT8=
EXTT9=
EXTT10=
EXTT11=
EXTT12=
EXTT13=
EXTT14=
EXTT15=
EXTT16=
EXTT17=
EXTT18=
EXTT19=
EXTT20=
PLAYORDER=
